<svg xmlns="http://www.w3.org/2000/svg" width="920" height="808" font-family="-apple-system,Segoe UI,Roboto,sans-serif" font-size="13">
<rect width="100%" height="100%" fill="#ffffff"/>
<text x="16" y="24" font-size="15" font-weight="600" fill="#0f172a">CPU while forwarding</text>
<text x="16" y="42" font-size="12" fill="#64748b">median of the repeats, all engine threads &#183; lower is better</text>
<text x="16" y="68" font-size="12" font-weight="600" fill="#334155">tcp-up-1</text>
<text x="142" y="90" text-anchor="end" font-size="12" fill="#475569">zeptun-hybrid</text>
<rect x="150" y="76" width="258" height="16" rx="3" fill="#2563eb"/>
<text x="416" y="90" font-size="12" fill="#0f172a">99.10 %</text>
<text x="142" y="114" text-anchor="end" font-size="12" fill="#475569">zeptun-userspace</text>
<rect x="150" y="100" width="217" height="16" rx="3" fill="#64748b"/>
<text x="375" y="114" font-size="12" fill="#0f172a">83.40 %</text>
<text x="142" y="138" text-anchor="end" font-size="12" fill="#475569">hev</text>
<rect x="150" y="124" width="251" height="16" rx="3" fill="#0f766e"/>
<text x="409" y="138" font-size="12" fill="#0f172a">96.35 %</text>
<text x="142" y="162" text-anchor="end" font-size="12" fill="#475569">singbox-gvisor</text>
<rect x="150" y="148" width="410" height="16" rx="3" fill="#b45309"/>
<text x="568" y="162" font-size="12" fill="#0f172a">158 %</text>
<text x="142" y="186" text-anchor="end" font-size="12" fill="#475569">singbox-system</text>
<rect x="150" y="172" width="355" height="16" rx="3" fill="#7c3aed"/>
<text x="513" y="186" font-size="12" fill="#0f172a">136 %</text>
<text x="142" y="210" text-anchor="end" font-size="12" fill="#475569">tun2socks</text>
<rect x="150" y="196" width="453" height="16" rx="3" fill="#be123c"/>
<text x="611" y="210" font-size="12" fill="#0f172a">174 %</text>
<text x="16" y="250" font-size="12" font-weight="600" fill="#334155">tcp-up-10</text>
<text x="142" y="272" text-anchor="end" font-size="12" fill="#475569">zeptun-hybrid</text>
<rect x="150" y="258" width="452" height="16" rx="3" fill="#2563eb"/>
<text x="610" y="272" font-size="12" fill="#0f172a">174 %</text>
<text x="142" y="296" text-anchor="end" font-size="12" fill="#475569">zeptun-userspace</text>
<rect x="150" y="282" width="336" height="16" rx="3" fill="#64748b"/>
<text x="494" y="296" font-size="12" fill="#0f172a">129 %</text>
<text x="142" y="320" text-anchor="end" font-size="12" fill="#475569">hev</text>
<rect x="150" y="306" width="578" height="16" rx="3" fill="#0f766e"/>
<text x="736" y="320" font-size="12" fill="#0f172a">222 %</text>
<text x="142" y="344" text-anchor="end" font-size="12" fill="#475569">singbox-gvisor</text>
<rect x="150" y="330" width="513" height="16" rx="3" fill="#b45309"/>
<text x="671" y="344" font-size="12" fill="#0f172a">197 %</text>
<text x="142" y="368" text-anchor="end" font-size="12" fill="#475569">singbox-system</text>
<rect x="150" y="354" width="446" height="16" rx="3" fill="#7c3aed"/>
<text x="604" y="368" font-size="12" fill="#0f172a">171 %</text>
<text x="142" y="392" text-anchor="end" font-size="12" fill="#475569">tun2socks</text>
<rect x="150" y="378" width="675" height="16" rx="3" fill="#be123c"/>
<text x="833" y="392" font-size="12" fill="#0f172a">259 %</text>
<text x="16" y="432" font-size="12" font-weight="600" fill="#334155">tcp-down-1</text>
<text x="142" y="454" text-anchor="end" font-size="12" fill="#475569">zeptun-hybrid</text>
<rect x="150" y="440" width="259" height="16" rx="3" fill="#2563eb"/>
<text x="417" y="454" font-size="12" fill="#0f172a">99.50 %</text>
<text x="142" y="478" text-anchor="end" font-size="12" fill="#475569">zeptun-userspace</text>
<rect x="150" y="464" width="259" height="16" rx="3" fill="#64748b"/>
<text x="417" y="478" font-size="12" fill="#0f172a">99.40 %</text>
<text x="142" y="502" text-anchor="end" font-size="12" fill="#475569">hev</text>
<rect x="150" y="488" width="257" height="16" rx="3" fill="#0f766e"/>
<text x="415" y="502" font-size="12" fill="#0f172a">98.60 %</text>
<text x="142" y="526" text-anchor="end" font-size="12" fill="#475569">singbox-gvisor</text>
<rect x="150" y="512" width="476" height="16" rx="3" fill="#b45309"/>
<text x="634" y="526" font-size="12" fill="#0f172a">183 %</text>
<text x="142" y="550" text-anchor="end" font-size="12" fill="#475569">singbox-system</text>
<rect x="150" y="536" width="395" height="16" rx="3" fill="#7c3aed"/>
<text x="553" y="550" font-size="12" fill="#0f172a">152 %</text>
<text x="142" y="574" text-anchor="end" font-size="12" fill="#475569">tun2socks</text>
<rect x="150" y="560" width="445" height="16" rx="3" fill="#be123c"/>
<text x="603" y="574" font-size="12" fill="#0f172a">171 %</text>
<text x="16" y="614" font-size="12" font-weight="600" fill="#334155">tcp-down-10</text>
<text x="142" y="636" text-anchor="end" font-size="12" fill="#475569">zeptun-hybrid</text>
<rect x="150" y="622" width="521" height="16" rx="3" fill="#2563eb"/>
<text x="679" y="636" font-size="12" fill="#0f172a">200 %</text>
<text x="142" y="660" text-anchor="end" font-size="12" fill="#475569">zeptun-userspace</text>
<rect x="150" y="646" width="463" height="16" rx="3" fill="#64748b"/>
<text x="621" y="660" font-size="12" fill="#0f172a">178 %</text>
<text x="142" y="684" text-anchor="end" font-size="12" fill="#475569">hev</text>
<rect x="150" y="670" width="554" height="16" rx="3" fill="#0f766e"/>
<text x="712" y="684" font-size="12" fill="#0f172a">213 %</text>
<text x="142" y="708" text-anchor="end" font-size="12" fill="#475569">singbox-gvisor</text>
<rect x="150" y="694" width="643" height="16" rx="3" fill="#b45309"/>
<text x="801" y="708" font-size="12" fill="#0f172a">247 %</text>
<text x="142" y="732" text-anchor="end" font-size="12" fill="#475569">singbox-system</text>
<rect x="150" y="718" width="359" height="16" rx="3" fill="#7c3aed"/>
<text x="517" y="732" font-size="12" fill="#0f172a">138 %</text>
<text x="142" y="756" text-anchor="end" font-size="12" fill="#475569">tun2socks</text>
<rect x="150" y="742" width="680" height="16" rx="3" fill="#be123c"/>
<text x="838" y="756" font-size="12" fill="#0f172a">261 %</text>
</svg>
