<svg xmlns="http://www.w3.org/2000/svg" width="920" height="626" font-family="-apple-system,Segoe UI,Roboto,sans-serif" font-size="13">
<rect width="100%" height="100%" fill="#ffffff"/>
<text x="16" y="24" font-size="15" font-weight="600" fill="#0f172a">Request/response latency, 99th percentile</text>
<text x="16" y="42" font-size="12" fill="#64748b">median of the repeats &#183; lower is better</text>
<text x="16" y="68" font-size="12" font-weight="600" fill="#334155">rr</text>
<text x="142" y="90" text-anchor="end" font-size="12" fill="#475569">zeptun-hybrid</text>
<rect x="150" y="76" width="121" height="16" rx="3" fill="#2563eb"/>
<text x="279" y="90" font-size="12" fill="#0f172a">184 us</text>
<text x="142" y="114" text-anchor="end" font-size="12" fill="#475569">zeptun-userspace</text>
<rect x="150" y="100" width="111" height="16" rx="3" fill="#64748b"/>
<text x="269" y="114" font-size="12" fill="#0f172a">169 us</text>
<text x="142" y="138" text-anchor="end" font-size="12" fill="#475569">hev</text>
<rect x="150" y="124" width="113" height="16" rx="3" fill="#0f766e"/>
<text x="271" y="138" font-size="12" fill="#0f172a">172 us</text>
<text x="142" y="162" text-anchor="end" font-size="12" fill="#475569">singbox-gvisor</text>
<rect x="150" y="148" width="206" height="16" rx="3" fill="#b45309"/>
<text x="364" y="162" font-size="12" fill="#0f172a">314 us</text>
<text x="142" y="186" text-anchor="end" font-size="12" fill="#475569">singbox-system</text>
<rect x="150" y="172" width="133" height="16" rx="3" fill="#7c3aed"/>
<text x="291" y="186" font-size="12" fill="#0f172a">203 us</text>
<text x="142" y="210" text-anchor="end" font-size="12" fill="#475569">tun2socks</text>
<rect x="150" y="196" width="166" height="16" rx="3" fill="#be123c"/>
<text x="324" y="210" font-size="12" fill="#0f172a">253 us</text>
<text x="16" y="250" font-size="12" font-weight="600" fill="#334155">rr-8x1k</text>
<text x="142" y="272" text-anchor="end" font-size="12" fill="#475569">zeptun-hybrid</text>
<rect x="150" y="258" width="329" height="16" rx="3" fill="#2563eb"/>
<text x="487" y="272" font-size="12" fill="#0f172a">500 us</text>
<text x="142" y="296" text-anchor="end" font-size="12" fill="#475569">zeptun-userspace</text>
<rect x="150" y="282" width="309" height="16" rx="3" fill="#64748b"/>
<text x="467" y="296" font-size="12" fill="#0f172a">470 us</text>
<text x="142" y="320" text-anchor="end" font-size="12" fill="#475569">hev</text>
<rect x="150" y="306" width="340" height="16" rx="3" fill="#0f766e"/>
<text x="498" y="320" font-size="12" fill="#0f172a">516 us</text>
<text x="142" y="344" text-anchor="end" font-size="12" fill="#475569">singbox-gvisor</text>
<rect x="150" y="330" width="561" height="16" rx="3" fill="#b45309"/>
<text x="719" y="344" font-size="12" fill="#0f172a">852 us</text>
<text x="142" y="368" text-anchor="end" font-size="12" fill="#475569">singbox-system</text>
<rect x="150" y="354" width="463" height="16" rx="3" fill="#7c3aed"/>
<text x="621" y="368" font-size="12" fill="#0f172a">704 us</text>
<text x="142" y="392" text-anchor="end" font-size="12" fill="#475569">tun2socks</text>
<rect x="150" y="378" width="569" height="16" rx="3" fill="#be123c"/>
<text x="727" y="392" font-size="12" fill="#0f172a">864 us</text>
<text x="16" y="432" font-size="12" font-weight="600" fill="#334155">crr</text>
<text x="142" y="454" text-anchor="end" font-size="12" fill="#475569">zeptun-hybrid</text>
<rect x="150" y="440" width="482" height="16" rx="3" fill="#2563eb"/>
<text x="640" y="454" font-size="12" fill="#0f172a">732 us</text>
<text x="142" y="478" text-anchor="end" font-size="12" fill="#475569">zeptun-userspace</text>
<rect x="150" y="464" width="368" height="16" rx="3" fill="#64748b"/>
<text x="526" y="478" font-size="12" fill="#0f172a">560 us</text>
<text x="142" y="502" text-anchor="end" font-size="12" fill="#475569">hev</text>
<rect x="150" y="488" width="413" height="16" rx="3" fill="#0f766e"/>
<text x="571" y="502" font-size="12" fill="#0f172a">628 us</text>
<text x="142" y="526" text-anchor="end" font-size="12" fill="#475569">singbox-gvisor</text>
<rect x="150" y="512" width="672" height="16" rx="3" fill="#b45309"/>
<text x="830" y="526" font-size="12" fill="#0f172a">1020 us</text>
<text x="142" y="550" text-anchor="end" font-size="12" fill="#475569">singbox-system</text>
<rect x="150" y="536" width="579" height="16" rx="3" fill="#7c3aed"/>
<text x="737" y="550" font-size="12" fill="#0f172a">880 us</text>
<text x="142" y="574" text-anchor="end" font-size="12" fill="#475569">tun2socks</text>
<rect x="150" y="560" width="680" height="16" rx="3" fill="#be123c"/>
<text x="838" y="574" font-size="12" fill="#0f172a">1032 us</text>
</svg>
